<?xml version="1.0" standalone="no"?>
<!DOCTYPE svg PUBLIC "-//W3C//DTD SVG 20010904//EN"
 "http://www.w3.org/TR/2001/REC-SVG-20010904/DTD/svg10.dtd">
<svg version="1.0" xmlns="http://www.w3.org/2000/svg"
 width="2000.000000pt" height="2000.000000pt" viewBox="0 0 2000.000000 2000.000000"
 preserveAspectRatio="xMidYMid meet">
<metadata>
Created by potrace 1.11, written by Peter Selinger 2001-2013
</metadata>
<g transform="translate(0.000000,2000.000000) scale(0.100000,-0.100000)"
fill="#000000" stroke="none">
<path d="M1779 19576 c-1 -15 -1 -19147 0 -19163 1 -10 462 -12 2233 -10
l2232 2 0 3735 c0 2054 3 3737 7 3740 4 3 1607 5 3563 5 2393 0 3557 3 3559
10 2 5 3 820 2 1810 l0 1800 -3550 2 c-1953 0 -3557 1 -3565 2 -14 1 -15 227
-15 2079 l0 2077 3809 0 3809 0 0 -2956 c0 -1626 -3 -2961 -7 -2967 -3 -6 -2
-13 4 -17 6 -4 7 -13 2 -23 -5 -9 -7 -26 -6 -37 2 -11 4 -29 4 -40 3 -33 -17
-980 -20 -980 -1 0 -3 -52 -5 -115 -3 -120 -12 -301 -21 -455 -3 -49 -7 -121
-9 -160 -5 -87 -14 -220 -21 -305 -2 -36 -7 -92 -9 -125 -3 -33 -7 -84 -10
-113 -3 -28 -7 -78 -10 -110 -3 -31 -7 -70 -10 -87 -2 -16 -7 -57 -11 -90 -3
-33 -8 -68 -10 -79 -2 -10 -6 -44 -10 -75 -3 -31 -10 -66 -15 -77 -4 -12 -6
-24 -3 -27 3 -2 0 -25 -6 -51 -11 -48 -18 -89 -24 -143 -3 -18 -7 -37 -10 -42
-3 -5 -8 -24 -10 -42 -3 -19 -12 -65 -22 -104 -9 -38 -18 -79 -20 -90 -2 -11
-17 -67 -34 -125 -17 -58 -32 -112 -34 -120 -9 -35 -76 -231 -101 -295 -166
-422 -393 -756 -675 -995 -36 -30 -67 -57 -70 -60 -14 -15 -111 -80 -119 -80
-5 0 -11 -3 -13 -7 -3 -9 -84 -63 -93 -63 -3 0 -23 -11 -45 -25 -22 -14 -40
-22 -40 -19 0 4 -8 0 -17 -8 -62 -52 -460 -187 -627 -212 -21 -4 -42 -8 -46
-11 -3 -2 -23 -5 -43 -7 -21 -1 -37 -5 -37 -8 0 -3 -12 -5 -27 -4 -16 0 -44
-3 -64 -7 -20 -5 -67 -11 -105 -14 -38 -4 -85 -8 -104 -10 -174 -21 -746 -21
-960 0 -19 1 -69 6 -110 9 -109 10 -245 24 -245 26 0 1 -16 3 -35 5 -19 2 -53
6 -75 10 -22 3 -60 8 -85 11 -25 3 -52 8 -60 11 -8 3 -31 7 -50 10 -19 2 -98
18 -175 34 -77 17 -148 33 -158 34 -9 2 -21 6 -25 9 -5 3 -22 7 -38 10 -17 3
-77 20 -134 37 -58 17 -109 32 -115 33 -5 1 -23 7 -40 13 -16 6 -100 37 -185
68 -492 181 -870 356 -1042 482 -27 19 -48 33 -48 30 0 -3 -16 -63 -36 -133
-19 -71 -37 -140 -40 -154 -2 -14 -9 -36 -14 -50 -5 -14 -34 -122 -65 -240
-31 -118 -63 -237 -71 -265 -39 -138 -85 -313 -89 -337 -2 -15 -8 -35 -14 -45
-5 -10 -9 -21 -10 -25 -1 -5 -1 -9 -2 -10 0 -2 -2 -10 -4 -18 -1 -8 -22 -85
-44 -170 -23 -85 -44 -163 -46 -173 -2 -10 -23 -86 -46 -170 -23 -84 -43 -159
-44 -167 -1 -8 -10 -41 -20 -74 -9 -32 -19 -66 -20 -75 -2 -9 -4 -16 -5 -16
-1 0 -3 -7 -5 -15 -1 -8 -10 -42 -19 -75 -9 -33 -18 -67 -20 -75 -2 -8 -11
-40 -19 -70 -32 -117 -57 -209 -82 -305 -14 -55 -28 -107 -30 -115 -10 -36
-58 -215 -129 -480 -42 -157 -79 -291 -81 -298 -6 -16 48 -54 280 -199 70 -43
228 -133 235 -133 5 0 10 -3 12 -8 3 -7 381 -202 393 -202 3 0 33 -13 67 -29
35 -16 104 -45 153 -66 50 -20 104 -43 120 -50 17 -7 42 -17 58 -20 15 -4 30
-11 33 -16 3 -5 15 -9 28 -9 12 0 27 -5 33 -11 6 -6 17 -12 24 -13 8 -1 98
-30 201 -64 102 -34 222 -71 265 -82 102 -28 222 -59 252 -66 12 -2 53 -12 90
-20 36 -9 73 -17 81 -19 8 -2 49 -10 90 -18 41 -9 86 -18 100 -20 43 -8 144
-26 175 -32 17 -2 39 -7 51 -9 12 -2 45 -7 75 -11 30 -3 61 -8 69 -10 8 -2 42
-6 75 -10 33 -3 71 -8 85 -10 14 -3 50 -7 80 -10 30 -3 87 -8 125 -12 92 -10
1855 -10 1965 0 157 14 195 17 260 22 36 2 65 5 65 5 0 3 43 9 104 14 36 3 84
8 106 11 22 3 58 7 80 10 22 3 51 7 65 9 14 3 48 8 75 11 28 4 64 9 80 11 17
2 46 6 65 9 19 3 46 7 60 10 14 3 39 8 55 10 17 2 41 6 55 9 28 5 128 23 175
31 17 3 41 8 55 11 45 11 65 15 90 19 41 7 319 74 400 96 41 12 80 22 85 23 6
2 30 9 55 16 25 7 51 15 58 16 8 1 21 6 30 10 9 4 22 8 27 9 56 13 342 113
440 154 11 5 56 23 100 41 171 71 434 196 488 233 15 10 33 20 40 21 7 1 19 6
27 11 24 16 46 28 102 59 29 15 60 34 69 42 8 8 19 14 22 14 9 0 282 175 297
190 3 3 12 10 21 15 38 23 138 95 152 110 9 8 20 15 25 15 6 0 12 4 14 8 2 5
23 24 48 43 207 158 525 460 685 651 15 18 168 209 203 253 40 51 221 320 257
382 6 10 30 52 55 93 160 272 360 699 469 1005 18 50 39 105 47 123 8 18 14
39 14 46 0 8 7 27 15 42 8 16 15 36 15 45 0 9 7 34 16 54 25 60 88 280 146
510 36 146 33 132 43 180 12 55 12 55 14 58 2 1 4 16 6 32 2 17 7 41 11 55 10
34 11 40 18 82 3 21 11 59 17 85 6 27 12 62 15 78 2 17 6 41 9 55 3 14 8 42
11 64 3 21 7 46 9 55 1 9 6 36 10 61 3 25 9 59 12 75 8 47 13 87 18 129 2 21
7 56 10 77 3 22 7 58 10 82 3 23 8 58 10 77 3 19 8 60 11 90 3 30 7 66 9 80 9
74 14 121 20 179 14 131 15 147 20 201 2 30 7 75 10 100 3 25 8 70 10 100 3
30 7 80 10 110 3 30 7 84 10 120 7 95 14 176 20 255 3 39 8 106 11 150 3 44 7
105 9 135 6 81 14 229 20 360 3 63 8 153 10 200 12 226 21 503 31 930 3 157 6
2560 7 5340 l0 5055 -8226 1 c-6153 1 -8227 -1 -8228 -10z"/>
</g>
</svg>
